<?xml version="1.0" encoding="utf-8"?>
<!-- Generator: Adobe Illustrator 18.1.0, SVG Export Plug-In . SVG Version: 6.00 Build 0)  -->
<svg version="1.1" id="Layer_1" xmlns="http://www.w3.org/2000/svg" xmlns:xlink="http://www.w3.org/1999/xlink" x="0px" y="0px"
	 viewBox="0 0 423.3 134.7" enable-background="new 0 0 423.3 134.7" xml:space="preserve">
<g>
	<path fill="#C7EAFB" d="M183.5,52.4c1.4,0,2.6,0.3,3.6,1c1,0.7,1.7,1.5,2.2,2.6c1.1-1,2.4-1.9,4-2.5c1.6-0.7,3.4-1,5.2-1
		c1.3,0,2.5,0.3,3.4,0.8c0.9,0.5,1.7,1.3,2.2,2.3c0.5,1,0.9,2,1.2,3.2c0.2,1.1,0.4,2.4,0.4,3.7v5.4c0,2.1,0.1,3.6,0.4,4.6
		c0.1,0.2,0.6,0.5,1.5,0.7c0.9,0.3,1.6,0.4,1.9,0.4c0.1,0,0.2,0.2,0.2,0.7c0,0.5,0,0.8-0.1,1c-0.3,0-1.2-0.1-2.9-0.2
		c-1.7-0.1-2.9-0.2-3.8-0.2c-0.9,0-2.2,0.1-3.8,0.2c-1.6,0.1-2.6,0.2-3,0.2c-0.1-0.1-0.2-0.5-0.2-1s0.1-0.8,0.2-0.8
		c0.4,0,1.1-0.1,2-0.4c0.9-0.3,1.4-0.5,1.4-0.7c0.3-1,0.4-2.2,0.4-3.6v-5.2c0-4.9-1.7-7.4-5.2-7.4c-1.2,0-2.2,0.3-3,0.8
		c-0.8,0.5-1.3,1.1-1.4,1.6c0,0.1,0,0.2,0,0.4c0,0.2,0,0.3,0,0.4c0.1,0.7,0.2,1.8,0.2,3.2v5.4c0,1.9,0.1,3.4,0.4,4.4
		c0.1,0.2,0.6,0.5,1.5,0.7c0.9,0.3,1.6,0.4,1.9,0.4c0.1,0,0.2,0.2,0.2,0.7c0,0.5,0,0.8-0.1,1c-0.3,0-1.2-0.1-2.9-0.2
		c-1.7-0.1-2.9-0.2-3.8-0.2c-0.9,0-2.2,0.1-3.8,0.2c-1.6,0.1-2.6,0.2-3,0.2c-0.1-0.1-0.2-0.5-0.2-1s0.1-0.8,0.2-0.8
		c0.4,0,1.1-0.1,2-0.4c0.9-0.3,1.4-0.5,1.4-0.7c0.3-1,0.4-2.3,0.4-3.7v-4.9c0-2.7-0.4-4.6-1.3-5.8c-0.9-1.2-2.1-1.8-3.8-1.8
		c-1.1,0-2.1,0.3-3,0.9c-0.9,0.6-1.4,1.2-1.4,1.9v8.8c0,2.1,0.1,3.6,0.4,4.6c0.1,0.2,0.6,0.5,1.4,0.7c0.9,0.3,1.5,0.4,1.8,0.4
		c0.1,0,0.2,0.2,0.2,0.7c0,0.5,0,0.8-0.1,1c-0.3,0-1.3-0.1-2.9-0.2c-1.6-0.1-2.9-0.2-3.7-0.2c-0.9,0-2.2,0.1-3.9,0.2
		c-1.7,0.1-2.6,0.2-2.9,0.2c-0.1-0.1-0.2-0.5-0.2-1s0.1-0.8,0.2-0.8c0.4,0,1.1-0.1,2-0.4c0.9-0.3,1.4-0.5,1.5-0.7
		c0.3-1,0.4-2.3,0.4-3.7v-8.3c0-1.6-0.3-2.7-0.9-3.3c-0.3-0.3-0.7-0.6-1.2-0.8c-0.5-0.2-1-0.3-1.4-0.3c-0.4,0-0.6-0.1-0.6-0.2
		c0-1,0.1-1.5,0.3-1.5c1.7-0.1,4.7-0.6,8.9-1.5c0,0,0.1-0.1,0.2-0.1c0.1,0,0.2,0,0.3,0c0.2,0,0.3,0.1,0.4,0.4
		c0.1,0.2,0.1,0.4,0.1,0.6c-0.1,1-0.2,1.6-0.2,1.8c0,0.1,0,0.2,0.1,0.3c0,0,0.1-0.1,0.3-0.2c0.9-0.8,2-1.5,3.4-2.1
		C180.7,52.7,182.1,52.4,183.5,52.4z"/>
	<path fill="#C7EAFB" d="M233.4,67.7c0,2.1,0.1,3.6,0.4,4.6c0.1,0.2,0.6,0.5,1.5,0.7s1.6,0.4,1.9,0.4c0.1,0,0.2,0.2,0.2,0.7
		c0,0.5,0,0.8-0.1,1c-0.3,0-1.2-0.1-3-0.2c-1.7-0.1-3-0.2-3.8-0.2c-0.9,0-2.2,0.1-3.9,0.2c-1.7,0.1-2.7,0.2-2.9,0.2
		c-0.1-0.1-0.2-0.5-0.2-1s0.1-0.8,0.2-0.8c0.4,0,1.1-0.1,2-0.4c0.9-0.3,1.4-0.5,1.5-0.7c0.3-1,0.4-2.3,0.4-3.7v-8.3
		c0-1.6-0.3-2.7-0.9-3.3c-0.3-0.3-0.8-0.6-1.3-0.8c-0.5-0.2-1-0.3-1.3-0.3c-0.4,0-0.6-0.1-0.6-0.2c0-1,0.1-1.5,0.3-1.5
		c1-0.1,2.5-0.3,4.5-0.6c2-0.3,3.4-0.6,4.4-0.9c0,0,0.2,0,0.4-0.1c0.2,0,0.3,0.1,0.4,0.4c0.1,0.2,0.1,0.4,0.1,0.6
		c-0.3,2.2-0.4,3.6-0.4,4.4V67.7z M227.6,46.4c-0.7-0.6-1-1.4-1-2.2c0-0.9,0.3-1.6,1-2.2c0.7-0.6,1.5-0.9,2.4-0.9s1.8,0.3,2.4,0.9
		c0.7,0.6,1,1.4,1,2.2c0,0.9-0.3,1.6-1,2.2c-0.7,0.6-1.5,0.9-2.4,0.9S228.3,47,227.6,46.4z"/>
	<path fill="#C7EAFB" d="M269.6,52.4c4.8,0,7.1,3.5,7.1,10.5v4.8c0,2.1,0.1,3.6,0.4,4.6c0.1,0.2,0.6,0.5,1.5,0.7
		c0.9,0.3,1.6,0.4,1.9,0.4c0.1,0,0.2,0.2,0.2,0.7c0,0.5,0,0.8-0.1,1c-0.2,0-1.2-0.1-2.9-0.2s-3-0.2-3.9-0.2c-0.9,0-2.1,0.1-3.7,0.2
		c-1.6,0.1-2.5,0.2-2.9,0.2c-0.1-0.1-0.2-0.5-0.2-1s0.1-0.8,0.2-0.8c0.4,0,1-0.1,1.9-0.4s1.3-0.5,1.4-0.7c0.3-1,0.4-2.3,0.4-3.7
		v-4.8c0-2.8-0.4-4.8-1.2-5.9c-0.8-1.1-2.2-1.7-4-1.7c-1.2,0-2.2,0.3-3.1,0.9c-0.9,0.6-1.3,1.2-1.3,1.9v8.8c0,2.1,0.1,3.6,0.4,4.6
		c0.1,0.2,0.6,0.5,1.5,0.7c0.9,0.3,1.5,0.4,1.8,0.4c0.1,0,0.2,0.2,0.2,0.7c0,0.5,0,0.8-0.1,1c-0.3,0-1.3-0.1-2.9-0.2
		c-1.6-0.1-2.9-0.2-3.7-0.2c-0.9,0-2.2,0.1-3.9,0.2s-2.7,0.2-3,0.2c-0.1-0.1-0.2-0.5-0.2-1s0.1-0.8,0.2-0.8c0.4,0,1.1-0.1,2-0.4
		c0.9-0.3,1.4-0.5,1.5-0.7c0.3-1,0.4-2.3,0.4-3.7v-8.3c0-1.6-0.3-2.7-0.9-3.3c-0.3-0.3-0.7-0.6-1.2-0.8c-0.5-0.2-1-0.3-1.3-0.3
		c-0.4,0-0.5-0.1-0.5-0.2c0-1,0.1-1.5,0.3-1.5c1.7-0.1,4.7-0.6,8.9-1.5c0,0,0.1-0.1,0.1-0.1c0.1,0,0.1,0,0.2,0c0.1,0,0.1,0,0.1,0
		c0.1,0,0.3,0.1,0.4,0.4c0.1,0.2,0.2,0.4,0.2,0.6c-0.1,1-0.2,1.6-0.2,1.8c0,0.1,0,0.2,0.1,0.3c0,0,0.1-0.1,0.3-0.2
		c0.9-0.8,2-1.5,3.4-2.1C266.8,52.7,268.2,52.4,269.6,52.4z"/>
	<path fill="#C7EAFB" d="M307.7,52.3c1.6,0,2.9,0.2,4,0.7c0.2,0,0.3-0.3,0.3-0.8v-4.8c0-1.3-0.1-2.4-0.3-3.5
		c-0.2-0.5-1.1-0.8-2.9-0.8h-0.4c-0.2,0-0.3-0.3-0.3-0.8c0-0.5,0.1-0.8,0.3-0.8c1.1-0.1,2.2-0.2,3.2-0.4s1.9-0.3,2.6-0.5
		c0.7-0.2,1.3-0.3,1.8-0.5c0.5-0.2,0.9-0.3,1.1-0.4c0.3-0.1,0.4-0.1,0.4-0.1h0.1c0.1,0,0.3,0.1,0.4,0.3s0.2,0.4,0.2,0.5
		c-0.4,1.3-0.6,2.9-0.6,4.8v22.4c0,1.6,0.1,2.8,0.3,3.8c0,0.2,0.2,0.4,0.6,0.6c0.3,0.1,0.7,0.2,1.1,0.3c0.4,0,0.7,0.1,1.1,0.1
		c0.3,0,0.5,0,0.6,0c0.1,0.1,0.1,0.3,0.1,0.6c0,0.7-0.1,1-0.3,1c-0.5,0-1.2,0.1-2,0.2c-0.8,0.1-1.6,0.2-2.3,0.3
		c-0.8,0.1-1.5,0.2-2.2,0.4c-0.7,0.1-1.5,0.3-2.3,0.4c-0.2,0-0.3-0.3-0.3-0.9v-0.9c0-0.1,0-0.2-0.1-0.2c-0.1,0-0.1,0-0.1,0
		c-1.8,1.3-3.7,1.9-5.8,1.9c-3,0-5.6-1-7.8-3c-2.2-2-3.3-4.6-3.3-7.6c0-3.4,1.3-6.2,3.8-8.6C301.2,53.5,304.2,52.3,307.7,52.3z
		 M307.2,54.7c-2,0-3.4,0.8-4.4,2.3s-1.5,3.6-1.5,6.2c0,2.9,0.6,5.1,1.7,6.8c1.1,1.6,2.8,2.4,4.8,2.4c1.3,0,2.3-0.3,3-0.9
		c0.8-0.6,1.2-1.4,1.2-2.3V58.5c0-0.3-0.1-0.7-0.2-1.1c-0.1-0.4-0.4-0.8-0.7-1.2c-0.3-0.4-0.8-0.8-1.5-1.1
		C309,54.9,308.1,54.7,307.2,54.7z"/>
	<path fill="#C7EAFB" d="M344.4,52.3c2.1,0,4.2,0.3,6.4,0.9c0.4,1.5,0.6,3.4,0.6,5.7c0,0.3-0.2,0.4-0.7,0.4c-0.8,0-1.3-0.1-1.3-0.4
		c-0.3-1.2-0.8-2.2-1.6-3c-0.8-0.8-1.9-1.2-3.4-1.2c-1.1,0-1.9,0.2-2.5,0.7c-0.6,0.4-0.9,1.1-0.9,1.9c0,0.5,0.1,0.9,0.3,1.3
		c0.2,0.4,0.5,0.8,1,1.1s0.9,0.6,1.2,0.8c0.4,0.2,0.9,0.5,1.6,0.8c0.3,0.1,0.4,0.2,0.6,0.3c0.1,0,0.4,0.2,0.8,0.4
		c0.5,0.2,0.8,0.4,0.9,0.5c0.1,0.1,0.4,0.2,0.9,0.5s0.8,0.5,1,0.6c0.2,0.1,0.5,0.3,0.9,0.6c0.4,0.3,0.7,0.5,0.8,0.7
		c0.2,0.2,0.4,0.5,0.7,0.8s0.5,0.6,0.6,0.9c0.1,0.3,0.2,0.6,0.3,1c0.1,0.4,0.1,0.7,0.1,1.1c0,2.1-0.9,3.8-2.7,5.1
		c-1.8,1.2-4,1.9-6.5,1.9c-2.3,0-4.7-0.5-7.1-1.4c-0.2-0.6-0.4-1.5-0.6-2.8c-0.2-1.3-0.3-2.3-0.3-2.9c0.2-0.2,0.5-0.3,0.8-0.3
		c0.8,0,1.3,0.1,1.3,0.4c0.3,1.4,1,2.6,2.2,3.4c1.2,0.9,2.4,1.3,3.8,1.3c1,0,1.9-0.2,2.5-0.7c0.7-0.5,1-1.2,1-2.1
		c0-0.3,0-0.7-0.1-0.9c-0.1-0.3-0.3-0.6-0.5-0.9c-0.3-0.3-0.5-0.5-0.6-0.7c-0.2-0.2-0.5-0.4-1-0.7c-0.5-0.3-0.9-0.5-1.1-0.6
		c-0.2-0.1-0.7-0.3-1.4-0.7c-0.7-0.3-1.2-0.6-1.4-0.7c-1.7-0.8-3-1.7-3.9-2.7c-0.9-1-1.4-2.2-1.4-3.6c0-2.1,0.9-3.7,2.7-4.8
		C340,52.9,342,52.3,344.4,52.3z"/>
	<path fill="#C7EAFB" d="M378.4,52.4c1.7,0,3.3,0.3,4.7,0.9c1.4,0.6,2.4,1.4,3.2,2.4c0.8,1,1.4,2,1.8,3c0.4,1,0.6,2,0.6,3
		c0,0.7-0.1,1.2-0.4,1.4c-0.3,0.2-0.8,0.3-1.7,0.3h-13.2c-0.3,0-0.4,0.1-0.4,0.3c0,1.2,0.2,2.4,0.7,3.6c0.5,1.2,1.3,2.2,2.5,3
		c1.2,0.8,2.6,1.3,4.2,1.3c0.6,0,1.1,0,1.6-0.1c0.5-0.1,1-0.1,1.4-0.3c0.4-0.1,0.8-0.2,1.2-0.3c0.3-0.1,0.7-0.3,1-0.5
		c0.4-0.2,0.6-0.3,0.7-0.4s0.5-0.3,1.1-0.7c0.1,0,0.2,0.1,0.3,0.3c0.1,0.2,0.2,0.3,0.2,0.5c0,0.4-0.1,0.7-0.3,1
		c-0.6,0.9-1.6,1.8-3.3,2.8c-1.6,0.9-3.5,1.4-5.5,1.4c-3.2,0-6-1.1-8.3-3.3s-3.5-4.9-3.5-8c0-3.4,1.1-6.2,3.2-8.4
		C372.3,53.5,375,52.4,378.4,52.4z M378,54.7c-0.9,0-1.7,0.2-2.4,0.7c-0.7,0.5-1.2,1.1-1.6,1.7c-0.4,0.7-0.6,1.3-0.8,1.9
		c-0.2,0.6-0.2,1.1-0.2,1.5c0,0.2,0.1,0.4,0.3,0.4h9c0.3,0,0.5-0.3,0.5-0.8c0-1.2-0.4-2.4-1.3-3.6S379.4,54.7,378,54.7z"/>
	<path fill="#C7EAFB" d="M405.7,56h-3.4c-0.3,0-0.4-0.4-0.4-1.3c0-0.2,0-0.4,0.1-0.5c1.5-0.6,2.9-1.5,4.3-2.7c0.5-0.4,1-0.9,1.6-1.5
		c0.6-0.6,1.2-1.3,2-2.2c0.4,0,0.7,0,1.1,0.1c0.3,0.1,0.5,0.2,0.5,0.3v5c1,0,2.3,0,4,0c1.7,0,2.6,0,2.7,0c0.3,0,0.4,0.2,0.4,0.5
		c0,0.8-0.2,1.6-0.6,2.2h-6.6v12.3c0,1.4,0.3,2.4,0.9,3.1c0.6,0.7,1.5,1.1,2.6,1.1c0.4,0,0.8,0,1.2-0.1s0.7-0.2,1-0.3
		c0.3-0.1,0.5-0.2,0.7-0.3c0.2-0.1,0.4-0.2,0.4-0.2c0.1,0,0.3,0.1,0.5,0.5c0.2,0.3,0.3,0.6,0.2,0.7c-0.2,0.5-1,1-2.4,1.7
		c-1.3,0.6-2.7,0.9-4,0.9c-1.9,0-3.6-0.6-4.9-1.7s-2-2.9-2-5.3V56z"/>
</g>
<path fill="#C7EAFB" d="M93.5,77.4c0.2-0.6,0.6-1.4,0.6-1.4s5-5.2,6.6-7.9c8.2-13.8,3.9-31.4-9.4-39.3c-13.4-7.9-30.8-3.1-38.9,10.8
	c0,0-1.3,3.6-1.3,5.7c0,2.1,0.1,3.9,0.3,5c0.2,1.1,0.5,1.7,0.2,2.6c0,0-0.1,0.6-0.7,1.5c-0.6,0.8-3.4,4.4-4,5.2
	c-0.6,0.8-1.8,2.4-1.8,2.9c0,0.5,0.1,1.7,1.6,2.3c1.5,0.6,3,1.4,2.4,3.3c-0.5,1.9-1,2.2-0.9,2.4c0.1,0.2,0.5,0.8,0.7,1.1l0.2,0.4
	c0,0-0.7,0.8-0.7,1.2c0,0.5,0.4,1,0.6,1.1c0.2,0.1,0.6,0,1,0.9c0.3,0.9,0.6,1.3,0.3,2.6c-0.3,1.3-0.1,4.3,0.5,4.9
	c0.7,0.6,0.5,1.5,4.9,1.7c4.3,0.2,6.7-0.1,7.6,0.2c0.9,0.2,1.9,0.6,2.5,2.1c0.6,1.4,1.2,2.5,1.1,5.3c-0.1,2.8-0.5,6.3-1.1,8.9
	c3.7,1.1,7.6,1.7,11.7,2c6.5,0.4,12.9-0.3,18.8-1.9c-0.4-1.1-0.8-2.2-1.1-3.2c-1.3-3.8-2.1-7.8-2.2-9.3c-0.1-1.5-0.2-5.2,0-7.1
	C93.1,79.5,93.3,78,93.5,77.4 M78.8,62.9c0.2-0.3,0.3-0.5,0.4-0.8c1.7-3,3.5-6.1,5.2-9.1c0.2-0.3,0.2-0.5,0-0.8
	c-1.4-2.4-2.8-4.8-4.1-7.1c0,1.8,0,3.5,0,5.3c0,1.5-0.1,3,1,4.3H75c0.6-0.8,0.8-1.6,0.8-2.5c0-2.7,0-5.4,0-8c0-0.1,0-0.1-0.1-0.2
	c-1.5,1.9-2.9,3.9-4.4,5.9c-1.6-2-3.1-3.9-4.7-5.9c0,0.2-0.1,0.3-0.1,0.4c0,2.6,0,5.2,0,7.8c0,0.9,0.1,1.7,0.7,2.5h-6.1
	c0.7-1,0.7-2.3,0.7-3.4c0-3.8,0-7.6,0-11.4c0-1.1-0.3-2.1-0.9-3c-0.1-0.1-0.2-0.3-0.3-0.5c1.6,0,3.2,0,4.7,0c0.2,0,0.4,0.2,0.5,0.3
	c1.4,2.5,3.4,4.6,5.2,6.8c0,0,0.1,0.1,0.2,0.1c0.7-0.8,1.3-1.6,2-2.4c1.2-1.5,2.3-3.1,3.5-4.6c0.1-0.1,0.3-0.2,0.4-0.2
	c1.5,0,2.9,0,4.5,0c-0.2,0.4-0.4,0.7-0.6,1.1c-0.4,0.7-0.6,1.4-0.6,2.3c0,0.9,0,1.8,0,2.6h15.2c-0.7,1.4-1.4,2.8-2.1,4.2
	c-2.2-1.3-4.8-1-7.4-1c0.1,0.2,0.2,0.4,0.3,0.6c1.1,2,2.2,4,3.4,6c0.2,0.4,0.2,0.6,0,1c-1.1,2-2.2,3.9-3.3,5.9
	c-0.1,0.1-0.1,0.3-0.3,0.5c3.1,0.1,6.2,0.1,9.2-1c-0.1,0.2-0.1,0.3-0.1,0.4c-0.5,1.2-1,2.5-1.6,3.7c-0.1,0.2-0.3,0.3-0.4,0.3
	C88.4,62.9,83.6,62.9,78.8,62.9"/>
<polygon fill-rule="evenodd" clip-rule="evenodd" fill="#C7EAFB" points="83.8,112.3 83.8,116.4 77.7,116.4 77.7,108.2 87.9,108.2 
	87.9,130.8 77.7,130.8 77.7,122.6 83.8,122.6 83.8,126.7 81.8,126.7 81.8,124.7 79.7,124.7 79.7,128.8 85.9,128.8 85.9,120.5 
	67.4,120.5 67.4,128.8 73.5,128.8 73.5,124.7 71.5,124.7 71.5,126.7 69.4,126.7 69.4,122.6 75.6,122.6 75.6,130.8 65.3,130.8 
	65.3,108.2 75.6,108.2 75.6,116.4 69.4,116.4 69.4,112.3 71.5,112.3 71.5,114.4 73.5,114.4 73.5,110.3 67.4,110.3 67.4,118.5 
	85.9,118.5 85.9,110.3 79.7,110.3 79.7,114.4 81.8,114.4 81.8,112.3 "/>
<path fill-rule="evenodd" clip-rule="evenodd" fill="#C7EAFB" d="M19.3,112.3c0-2.1-1.7-3.8-3.8-3.8c-2.1,0-3.8,1.7-3.8,3.8l0,14.3
	c0,2.1,1.7,3.8,3.8,3.8c2.1,0,3.8-1.7,3.8-3.8L19.3,112.3z"/>
<path fill-rule="evenodd" clip-rule="evenodd" fill="#C7EAFB" d="M10.5,115.3c0-1.2-0.7-2.2-1.5-2.2c-0.8,0-1.5,1-1.5,2.2l0,8.4
	c0,1.2,0.7,2.2,1.5,2.2c0.8,0,1.5-1,1.5-2.2L10.5,115.3z"/>
<path fill-rule="evenodd" clip-rule="evenodd" fill="#C7EAFB" d="M6.2,121.9c-1.2,0-2.2-1-2.3-2.3c0-1.3,0.9-2.4,2.1-2.4"/>
<path fill-rule="evenodd" clip-rule="evenodd" fill="#C7EAFB" d="M135.7,112.4c0-2.1,1.7-3.8,3.8-3.8c2.1,0,3.8,1.7,3.8,3.8l0,14.3
	c0,2.1-1.7,3.8-3.8,3.8c-2.1,0-3.8-1.7-3.8-3.8L135.7,112.4z"/>
<path fill-rule="evenodd" clip-rule="evenodd" fill="#C7EAFB" d="M144.5,115.3c0-1.2,0.7-2.2,1.5-2.2c0.8,0,1.5,1,1.5,2.2l0,8.4
	c0,1.2-0.7,2.2-1.5,2.2c-0.8,0-1.5-1-1.5-2.2L144.5,115.3z"/>
<path fill-rule="evenodd" clip-rule="evenodd" fill="#C7EAFB" d="M148.8,122c1.2,0,2.2-1,2.3-2.3c0-1.3-0.9-2.4-2.1-2.4"/>
<line fill="#C7EAFB" x1="22" y1="119.5" x2="133" y2="119.5"/>
<rect x="22" y="118.5" fill="#C7EAFB" width="111" height="2.1"/>
<path fill-rule="evenodd" clip-rule="evenodd" fill="#C7EAFB" d="M30.7,22.8l0.4,6.6c3.7-1,7.1-10,7.1-15.3v-3.9
	c0-2.4-0.5-4.9-1.2-6.6C33.3,6.2,30,15.4,30.7,22.8"/>
<path fill-rule="evenodd" clip-rule="evenodd" fill="#C7EAFB" d="M116.9,24.5c-1.8-8.8-9-19.9-16.9-21.9
	C100.3,13,108.9,22.5,116.9,24.5"/>
<path fill-rule="evenodd" clip-rule="evenodd" fill="#C7EAFB" d="M115.7,8.3v6.1c0,4.7,3.5,14.6,7,14.9l0.4-4.8v-3.1
	c0-7.1-2.5-15.1-6.3-18C116.4,4.6,115.7,6.7,115.7,8.3"/>
<path fill-rule="evenodd" clip-rule="evenodd" fill="#C7EAFB" d="M36.9,24.5c8-2.1,16.7-11.6,16.9-21.9
	C45.6,4.8,38.8,15.6,36.9,24.5"/>
<path fill-rule="evenodd" clip-rule="evenodd" fill="#C7EAFB" d="M28.7,38.6c8,0,21.4-10.4,22.7-17.1c-4.9,0-11.2,3.1-14.1,5.3
	C32.8,30.1,31.3,33.1,28.7,38.6"/>
<path fill-rule="evenodd" clip-rule="evenodd" fill="#C7EAFB" d="M124.4,21v4.8c0,5.6,2.3,15,5.1,17.1c0.8-1.7,2.4-5.9,2.4-8.3v-3.5
	c0-5.1-3.1-15.1-5.5-17.1C125.7,15.4,124.4,19.1,124.4,21"/>
<path fill-rule="evenodd" clip-rule="evenodd" fill="#C7EAFB" d="M125.2,38.6c-4.1-8.6-11.2-17.1-22.7-17.1
	C103.8,28.2,117,38.6,125.2,38.6"/>
<path fill-rule="evenodd" clip-rule="evenodd" fill="#C7EAFB" d="M22,31.1v3.5c0,2.4,1.6,6.7,2.4,8.3c2.5-1.9,5.1-11.3,5.1-16.2V21
	c0-2.3-1.1-5.2-2-6.6C24.9,16.4,22,26,22,31.1"/>
<path fill-rule="evenodd" clip-rule="evenodd" fill="#C7EAFB" d="M131,48.6l-0.1,0.5l0.5,4.8c3.3-1,8.2-11.1,8.2-16.2v-8.3
	c0-1.2-0.2-1.2-0.4-2.2C134.4,30.8,131,39.5,131,48.6"/>
<path fill-rule="evenodd" clip-rule="evenodd" fill="#C7EAFB" d="M131,70.5c6-1.6,12.2-15.2,12.2-24.1C135.6,48.4,131,59.6,131,70.5
	"/>
<path fill-rule="evenodd" clip-rule="evenodd" fill="#C7EAFB" d="M14.2,30.2v7.4c0,5.1,4.9,15.2,8.2,16.2l0.4-3.9v-3.1
	c0-7.6-4.1-16.6-8.2-19.7C14.5,28.5,14.2,28.7,14.2,30.2"/>
<path fill-rule="evenodd" clip-rule="evenodd" fill="#C7EAFB" d="M23.6,59.2v2.6c3-0.8,6.9-5.9,8.2-8.8c1-2.2,4.2-10.5,3.9-13.6
	C35.4,35,23.6,47.3,23.6,59.2"/>
<path fill-rule="evenodd" clip-rule="evenodd" fill="#C7EAFB" d="M130.5,59.2v2.6c-3-0.8-6.9-5.9-8.2-8.8c-1-2.2-4.2-10.5-3.9-13.6
	C118.6,35,130.5,47.3,130.5,59.2"/>
<path fill-rule="evenodd" clip-rule="evenodd" fill="#C7EAFB" d="M22.8,70.5c0-10.9-4.5-22.1-12.2-24.1C10.6,55.4,16.8,69,22.8,70.5
	"/>
<path fill-rule="evenodd" clip-rule="evenodd" fill="#C7EAFB" d="M128.3,82.8c4.4-0.4,8.7-4.7,11.3-7.6c4.2-4.7,4.5-6.5,7.2-12.6
	c-4.3,0.4-9.2,4.4-11.7,7.1C130.1,75.3,131.2,76.1,128.3,82.8"/>
<path fill-rule="evenodd" clip-rule="evenodd" fill="#C7EAFB" d="M7.1,62.7c2.1,4.9,3.7,9.2,7,12.8c2.2,2.5,7.7,7,11.5,7.3
	c-2.9-6.7-1.8-7.5-6.8-13C16.3,67,11.4,63.1,7.1,62.7"/>
<path fill-rule="evenodd" clip-rule="evenodd" fill="#C7EAFB" d="M25.6,72.7c0,5,1.5,13.1,4.7,14c0.9-4.1,2-5.6,2-11.4v-3.9
	c0-4.5-1.5-9.1-3.9-11c-1.6,3.4-2.7,5.7-2.7,11V72.7z"/>
<path fill-rule="evenodd" clip-rule="evenodd" fill="#C7EAFB" d="M123.6,86.7c3.2-1,4.7-9,4.7-14v-3.1c0-4-1.5-6.6-2.7-9.2
	c-2.4,1.8-3.9,6.4-3.9,11V78C121.6,81.4,123,83.9,123.6,86.7"/>
<path fill-rule="evenodd" clip-rule="evenodd" fill="#C7EAFB" d="M108.7,108.2c6.7-2,11.4-16.2,11.4-26.7
	c-5.2,3.9-11.4,13.5-11.4,23.2V108.2z"/>
<path fill-rule="evenodd" clip-rule="evenodd" fill="#C7EAFB" d="M117.7,100.3c8,0,19.8-11.3,20.4-18.8
	C128.2,81.5,121.3,92.8,117.7,100.3"/>
<path fill-rule="evenodd" clip-rule="evenodd" fill="#C7EAFB" d="M36.1,100.3C32.7,93,25.3,81.5,15.7,81.5
	C16.6,89.3,28,100.3,36.1,100.3"/>
<path fill-rule="evenodd" clip-rule="evenodd" fill="#C7EAFB" d="M33.8,81.5c0,10.6,4.7,24.7,11.4,26.7v-3.5
	C45.2,95,38.9,85.3,33.8,81.5"/>
<path fill-rule="evenodd" clip-rule="evenodd" fill="#C7EAFB" d="M36.5,109.5h3.9c1.1,0,1.1-0.2,2-0.4c-1.1-4.6-13.8-10.1-20-10.1
	H22l-6.7,0.4C17.7,104.5,29.1,109.5,36.5,109.5"/>
<path fill-rule="evenodd" clip-rule="evenodd" fill="#C7EAFB" d="M116.9,109.5c7,0,20.4-5.4,21.6-10.1l-5.9-0.5
	c-6.7-0.6-20.1,5.7-21.2,10.2c0.9,0.2,0.9,0.4,2,0.4H116.9z"/>
<path fill-rule="evenodd" clip-rule="evenodd" fill="#C7EAFB" d="M39.3,111.3c-4.3,0-10.5,1.1-12.2,3c6,1.1,8.9,2.4,17.3,2.4h0.8
	c3.2,0,8.5-1.2,9.8-2.7c-3.5-1.8-9.4-2.7-15.3-2.7H39.3z"/>
<path fill-rule="evenodd" clip-rule="evenodd" fill="#C7EAFB" d="M90.3,123.6c1,2.4,6.3,5.4,9.7,6.1l1.9,0.4
	c7.1,1.5,10.5,0.1,16-0.1c-1.1-2.9-6.9-5.9-10.8-6.8l-3.5-0.7C99.5,121.6,93.4,122.5,90.3,123.6"/>
<path fill-rule="evenodd" clip-rule="evenodd" fill="#C7EAFB" d="M63.5,123.6c-1,2.4-6.3,5.4-9.7,6.1l-1.9,0.4
	c-7.1,1.5-10.5,0.1-16-0.1c1.1-2.9,6.9-5.9,10.8-6.8l3.5-0.7C54.4,121.6,60.5,122.6,63.5,123.6"/>
<path fill-rule="evenodd" clip-rule="evenodd" fill="#C7EAFB" d="M47.1,99.9c4.3,9.1,5.4,10,13.5,14.8
	C60.1,108.3,52.9,100,47.1,99.9"/>
<path fill-rule="evenodd" clip-rule="evenodd" fill="#C7EAFB" d="M92.8,115.2c8.4-5,9.5-5.8,14-15.3
	C100.7,100,93.3,108.6,92.8,115.2"/>
<path fill-rule="evenodd" clip-rule="evenodd" fill="#C7EAFB" d="M115.6,111.3c4.3,0,10.5,1.1,12.2,3c-6,1.1-8.9,2.4-17.3,2.4h-0.8
	c-3.2,0-8.5-1.2-9.8-2.7c3.5-1.8,9.4-2.7,15.3-2.7H115.6z"/>
<rect x="-79.9" y="-34" fill="none" width="612" height="196.5"/>
<g>
	<path fill="#C7EAFB" d="M178.7,88.9h-8.1v3.9h7.8v2.3h-7.8v6.7h-4.1V86.6H179L178.7,88.9z"/>
	<path fill="#C7EAFB" d="M196.8,101.9h-4.1V86.6h4.1V101.9z"/>
	<path fill="#C7EAFB" d="M219.8,101.9h-4.1v-13h-5.8v-2.3h15.8v2.3h-5.8V101.9z"/>
	<path fill="#C7EAFB" d="M242.4,91.6v10.3h-3.8V86.6h3.4l9.5,10.3V86.6h3.8v15.3h-3.5L242.4,91.6z"/>
	<path fill="#C7EAFB" d="M282.9,88.9h-8.5v3.8h8.2V95h-8.2v4.6l9.3,0.1l-0.2,2.2h-13.2V86.6h13L282.9,88.9z"/>
	<path fill="#C7EAFB" d="M304.2,88.6c-1.9,0-3.2,0.5-3.2,1.7c0,1.2,0.9,1.6,2.1,1.9l2.7,0.7c2.9,0.8,5.8,1.7,5.8,4.6
		c0,3.1-3.4,4.6-7.8,4.6c-3.1,0-5.4-0.4-7.2-1.3l1.1-2.3c1.4,0.7,3.8,1.2,6.1,1.2c2.2,0,3.7-0.5,3.7-1.8c0-1.4-1.4-1.9-3.1-2.3
		l-2.5-0.7c-2.5-0.6-5-1.7-5-4.3c0-2.9,3.3-4.4,7.3-4.4c2.7,0,4.9,0.3,6.5,1.2l-1.1,2.1C308.3,88.9,306.5,88.6,304.2,88.6z"/>
	<path fill="#C7EAFB" d="M332.3,88.6c-1.9,0-3.2,0.5-3.2,1.7c0,1.2,0.9,1.6,2.1,1.9l2.7,0.7c2.9,0.8,5.8,1.7,5.8,4.6
		c0,3.1-3.4,4.6-7.8,4.6c-3.1,0-5.4-0.4-7.2-1.3l1.1-2.3c1.4,0.7,3.8,1.2,6.1,1.2c2.2,0,3.7-0.5,3.7-1.8c0-1.4-1.4-1.9-3.1-2.3
		l-2.5-0.7c-2.5-0.6-5-1.7-5-4.3c0-2.9,3.3-4.4,7.3-4.4c2.7,0,4.9,0.3,6.5,1.2l-1.1,2.1C336.4,88.9,334.6,88.6,332.3,88.6z"/>
</g>
</svg>
